<svg id="Layer_1" data-name="Layer 1" xmlns="http://www.w3.org/2000/svg" viewBox="0 0 1920 1080"><defs><style>.cls-1{fill:#fff;}</style></defs><path class="cls-1" d="M896.75,798.73V212.9H801.06V381.81h-160c-34.85,0-56.3,22.35-56.3,65.24V791.13c0,42.9,35.75,76,78.65,76H929.2A88.22,88.22,0,0,1,896.75,798.73Zm-93-37.09H698.28V481.91H803.74ZM923.34,213.1a6.59,6.59,0,0,0-6.59,6.59V790.51a76.23,76.23,0,0,0,16.19,47.1c1.09,1.4,2.22,2.75,3.41,4.07V213.1Z"/><path class="cls-1" d="M916.75,228V790.51a76.23,76.23,0,0,0,16.19,47.1Zm-20,570.76V212.9H801.06V381.81h-160c-34.85,0-56.3,22.35-56.3,65.24V791.13c0,42.9,35.75,76,78.65,76H929.2A88.22,88.22,0,0,1,896.75,798.73Zm-93-37.09H698.28V481.91H803.74Z"/><path class="cls-1" d="M1259.56,219.69V335.06a6.59,6.59,0,0,1-6.59,6.59H1048.83a6.59,6.59,0,0,0-6.59,6.59V466.68a6.59,6.59,0,0,0,6.59,6.59h159.25a6.59,6.59,0,0,1,6.59,6.59V589.11a6.59,6.59,0,0,1-6.59,6.59H1048.83a6.59,6.59,0,0,0-6.59,6.59V727.87a6.59,6.59,0,0,0,6.59,6.59h163a81.11,81.11,0,0,0-18.56,51.64,81,81,0,0,0,64.2,79.26,6.53,6.53,0,0,1-4.45,1.74H993.34a76.42,76.42,0,0,1-57-25.42c-1.19-1.32-2.32-2.67-3.41-4.07a76.23,76.23,0,0,1-16.19-47.1V219.69a6.59,6.59,0,0,1,6.59-6.59H1253A6.59,6.59,0,0,1,1259.56,219.69Z"/><path class="cls-1" d="M1274.22,723.2c1.8,0,3.58.08,5.34.22V848.78c-1.76.14-3.54.22-5.34.22a62.9,62.9,0,0,1,0-125.8Z"/><path class="cls-1" d="M1253,734.46h-14.65a62.9,62.9,0,0,0,21.24,112.82V741.05A6.59,6.59,0,0,0,1253,734.46Zm0-521.36H923.34a6.59,6.59,0,0,0-6.59,6.59V790.51a76.23,76.23,0,0,0,16.19,47.1c1.09,1.4,2.22,2.75,3.41,4.07a76.42,76.42,0,0,0,57,25.42H1253a6.53,6.53,0,0,0,4.45-1.74,81,81,0,0,1-64.2-79.26,81.11,81.11,0,0,1,18.56-51.64h-163a6.59,6.59,0,0,1-6.59-6.59V602.29a6.59,6.59,0,0,1,6.59-6.59h159.25a6.59,6.59,0,0,0,6.59-6.59V479.86a6.59,6.59,0,0,0-6.59-6.59H1048.83a6.59,6.59,0,0,1-6.59-6.59V348.24a6.59,6.59,0,0,1,6.59-6.59H1253a6.59,6.59,0,0,0,6.59-6.59V219.69A6.59,6.59,0,0,0,1253,213.1Z"/><path class="cls-1" d="M1337.12,786.1a62.92,62.92,0,0,1-57.56,62.68c-1.76.14-3.54.22-5.34.22a62.9,62.9,0,0,1,0-125.8c1.8,0,3.58.08,5.34.22A62.91,62.91,0,0,1,1337.12,786.1Z"/><path class="cls-1" d="M1337.12,786.1a62.92,62.92,0,0,1-57.56,62.68c-1.76.14-3.54.22-5.34.22a62.9,62.9,0,0,1,0-125.8c1.8,0,3.58.08,5.34.22A62.91,62.91,0,0,1,1337.12,786.1Z"/></svg>