<svg id="Layer_1" data-name="Layer 1" xmlns="http://www.w3.org/2000/svg" viewBox="0 0 1920 1080"><defs><style>.cls-1{fill:#fff;}</style></defs><path class="cls-1" d="M355.44,353.38h10.38a4.59,4.59,0,0,0,4.59-4.6V250.55a4.58,4.58,0,0,0-4.59-4.59H288a4.59,4.59,0,0,0-4.6,4.59V368.78a4.59,4.59,0,0,1-4.59,4.6H162.76c-26.29,0-42.47,16.86-42.47,49.22v255a61.9,61.9,0,0,0,61.9,61.9H365.82a4.59,4.59,0,0,0,3.45-7.62,75.52,75.52,0,0,1-18.43-49.68V358A4.59,4.59,0,0,1,355.44,353.38Zm-70,301.93a4.59,4.59,0,0,1-4.59,4.6H210.51a4.6,4.6,0,0,1-4.6-4.6V453.48a4.59,4.59,0,0,1,4.6-4.59h70.36a4.58,4.58,0,0,1,4.59,4.59Z"/><path class="cls-1" d="M619.64,729.81a84.78,84.78,0,0,1-18.53-53V379.3a5.92,5.92,0,0,0-5.92-5.92H541.94A5.92,5.92,0,0,0,536,379.3V654a5.92,5.92,0,0,1-5.92,5.92H462.38a5.92,5.92,0,0,1-5.92-5.92V379.3a5.92,5.92,0,0,0-5.92-5.92H376.76a5.92,5.92,0,0,0-5.92,5.92V682.16a56.05,56.05,0,0,0,19.57,42.64,60.6,60.6,0,0,0,39.76,14.66H615a5.92,5.92,0,0,0,5.92-5.92A6,6,0,0,0,619.64,729.81Z"/><path class="cls-1" d="M848.05,385.73a59,59,0,0,0-36.14-12.35H631.11a10,10,0,0,0-10,10V676.81A65.42,65.42,0,0,0,641,723.62a60.77,60.77,0,0,0,42.46,17.51l21.71.31a1.28,1.28,0,0,0,1.29-1.28,1.25,1.25,0,0,0-.35-.87,70.74,70.74,0,0,1-19.65-49V661.86a10,10,0,0,1,10-10,10,10,0,0,0,10-10V466.71a10,10,0,0,1,9.75-10l59.19-1.49a10,10,0,0,1,10.25,10v91.66a10,10,0,0,0,10,10h45.71a10,10,0,0,0,10-10l.55-163.27A9.93,9.93,0,0,0,848.05,385.73Z"/><path class="cls-1" d="M959.42,740.72v.41H909.55c-.22,0-.45,0-.67,0-1.61.1-3.26.15-5,.15H761.39a51,51,0,0,1-51-51v-5.85A12.62,12.62,0,0,1,723,671.86H862.36A12.63,12.63,0,0,0,875,659.28l.23-72.41.68-201h0a12.62,12.62,0,0,1,12.62-12.58h46.67A12.62,12.62,0,0,1,946,392.35,75.17,75.17,0,0,0,939,408.42a76.16,76.16,0,0,0-3.3,22.22L935,683.51c0,.68,0,1.36,0,2,0,.17,0,.33,0,.5,0,.41,0,.81,0,1.21v.07s0,.11,0,.16c0,.31,0,.61,0,.92,0,.08,0,.14,0,.21,0,.74.1,1.48.16,2.21a1.11,1.11,0,0,0,0,.17l.06.74v0s0,0,0,.08h0v0a.09.09,0,0,0,0,0c0,.06,0,.12,0,.19a1.13,1.13,0,0,0,0,.18v0c0,.34.06.67.1,1,.23,2,.51,3.85.86,5.66A73.41,73.41,0,0,0,959.42,740.72Z"/><path class="cls-1" d="M1185.29,680.13V388.54a59,59,0,0,0-39.5-15.16H1015a60.73,60.73,0,0,0-36.81,12.28,57.35,57.35,0,0,0-16.06,18.84,55.57,55.57,0,0,0-3.09,7c-.34.93-.65,1.86-.94,2.81a56.08,56.08,0,0,0-2.43,16.42L955,673.13l0,10.38a65.75,65.75,0,0,0,.42,7.5c.17,1.45.38,2.87.65,4.28q.51,2.78,1.28,5.43a54.39,54.39,0,0,0,2.07,6,51.85,51.85,0,0,0,16,21.3c9.28,7.25,21.23,11.44,34.86,11.44h194.84v-6.92A79,79,0,0,1,1185.29,680.13Zm-66.47-23.59h-77.53V451.59h78.21Z"/><path class="cls-1" d="M1453.46,660a42.54,42.54,0,0,1,1.51-11.25l0,22.42A42.82,42.82,0,0,1,1453.46,660Z"/><path class="cls-1" d="M1455.4,382.7l-.37,230A62.68,62.68,0,0,0,1433.46,660a61.78,61.78,0,0,0,6.6,28,62.53,62.53,0,0,0,14.82,19.18l0,17.51v7.81l-.1,36.5q0,4.3-.32,8.34a55.46,55.46,0,0,1-17.17,40,59.53,59.53,0,0,1-41.45,16.58h-1.54c-2,.1-4.13.16-6.27.16H1279.72c-28.45,0-51.51-22.26-51.51-49.73V771.09a9.31,9.31,0,0,1,9.31-9.31h132.94v-.32l.5-25.12a9.31,9.31,0,0,0-9.31-9.49h-97a60.25,60.25,0,0,1-39.5-14.64,56.35,56.35,0,0,1-19.83-42.65V382.69a9.31,9.31,0,0,1,9.31-9.31h67a9.3,9.3,0,0,1,9.3,9.31V636.17a9.31,9.31,0,0,0,9.31,9.31h60.94a9.3,9.3,0,0,0,9.3-9.31V382.69a9.31,9.31,0,0,1,9.31-9.31h66.32A9.3,9.3,0,0,1,1455.4,382.7Z"/><path class="cls-1" d="M1538.46,660a42.51,42.51,0,1,1-42.5-42.5A42.5,42.5,0,0,1,1538.46,660Z"/><path class="cls-1" d="M1558.46,660c0,2-.09,3.91-.27,5.82,0-.73,0-1.47,0-2.21v-9.76Q1558.46,656.85,1558.46,660Z"/><path class="cls-1" d="M1538.46,660a42.51,42.51,0,1,1-42.5-42.5A42.5,42.5,0,0,1,1538.46,660Z"/><path class="cls-1" d="M1652.85,369.62h140.59a6.27,6.27,0,0,0,6.27-6.26V285.31a6.27,6.27,0,0,0-6.27-6.27h-229a6.27,6.27,0,0,0-6.27,6.27V663.58c0,.74,0,1.48,0,2.21a76.27,76.27,0,0,0,76.24,74.05h159a6.27,6.27,0,0,0,6.27-6.26V652.65a6.27,6.27,0,0,0-6.27-6.26H1652.85a6.27,6.27,0,0,1-6.26-6.27V554.88a6.26,6.26,0,0,1,6.26-6.26h109a6.27,6.27,0,0,0,6.27-6.26V468.62a6.27,6.27,0,0,0-6.27-6.26h-109a6.27,6.27,0,0,1-6.26-6.27v-80.2A6.27,6.27,0,0,1,1652.85,369.62Z"/></svg>