<svg id="Layer_1" data-name="Layer 1" xmlns="http://www.w3.org/2000/svg" viewBox="0 0 1920 1080"><defs><style>.cls-1{fill:#fff;}</style></defs><path class="cls-1" d="M590.39,313.44h16.76a7.42,7.42,0,0,0,7.42-7.42V147.42a7.42,7.42,0,0,0-7.42-7.42H481.56a7.42,7.42,0,0,0-7.41,7.42V338.31a7.42,7.42,0,0,1-7.42,7.42H279.3c-42.45,0-68.58,27.22-68.58,79.47V836.87a99.94,99.94,0,0,0,99.94,99.93H607.15a7.4,7.4,0,0,0,5.57-12.29A122,122,0,0,1,583,844.28V320.86A7.42,7.42,0,0,1,590.39,313.44Zm-113,487.5a7.42,7.42,0,0,1-7.42,7.42H356.38a7.42,7.42,0,0,1-7.41-7.42V475.07a7.42,7.42,0,0,1,7.41-7.42H470a7.42,7.42,0,0,1,7.42,7.42Z"/><path class="cls-1" d="M1017,921.22a136.89,136.89,0,0,1-29.91-85.57V355.29a9.56,9.56,0,0,0-9.55-9.56h-86a9.56,9.56,0,0,0-9.56,9.56V798.8a9.56,9.56,0,0,1-9.56,9.56H763.06a9.56,9.56,0,0,1-9.56-9.56V355.29a9.56,9.56,0,0,0-9.56-9.56H624.82a9.56,9.56,0,0,0-9.56,9.56v489a90.5,90.5,0,0,0,31.6,68.85,97.8,97.8,0,0,0,64.19,23.67h298.5a9.56,9.56,0,0,0,9.55-9.56A9.73,9.73,0,0,0,1017,921.22Z"/><path class="cls-1" d="M1385.76,365.68a95.23,95.23,0,0,0-58.35-19.95H1035.49a16.15,16.15,0,0,0-16.15,16.15V835.65a105.67,105.67,0,0,0,32.05,75.58c17.91,17.4,42,28.27,68.56,28.27l35,.5a2.06,2.06,0,0,0,2.09-2.06,2,2,0,0,0-.56-1.4,114.23,114.23,0,0,1-31.73-79.06v-46a16.15,16.15,0,0,1,16.15-16.15,16.13,16.13,0,0,0,16.14-16.14V496.42a16.15,16.15,0,0,1,15.74-16.14l95.57-2.41A16.14,16.14,0,0,1,1284.94,494V642a16.15,16.15,0,0,0,16.15,16.15h73.79A16.15,16.15,0,0,0,1391,642.05l.89-263.62A16.06,16.06,0,0,0,1385.76,365.68Z"/><path class="cls-1" d="M1566.61,776.07l-.69,108.36a68.56,68.56,0,0,1,.69-108.36Z"/><path class="cls-1" d="M1569.32,345.6l-2.48,392.85a101.06,101.06,0,0,0-1.15,183.6l-.11,16.78v.67h-80.53l-1.08,0q-3.9.24-8,.24H1245.84a82.32,82.32,0,0,1-82.3-82.29v-9.76a20.07,20.07,0,0,1,20.06-20.07h225.56a20.07,20.07,0,0,0,20.07-20l.38-117.23,1.1-324.52v-.31a20.07,20.07,0,0,1,20.06-20Z"/><path class="cls-1" d="M1677,830.51a68.6,68.6,0,1,1-68.62-68.62A68.62,68.62,0,0,1,1677,830.51Z"/><path class="cls-1" d="M1677,830.51a68.6,68.6,0,1,1-68.62-68.62A68.62,68.62,0,0,1,1677,830.51Z"/></svg>