<svg id="Layer_1" data-name="Layer 1" xmlns="http://www.w3.org/2000/svg" viewBox="0 0 1920 1080"><defs><style>.cls-1{fill:#fff;}</style></defs><path class="cls-1" d="M313.54,407.57h9.76a4.32,4.32,0,0,0,4.32-4.32V310.89a4.32,4.32,0,0,0-4.32-4.32H250.18a4.32,4.32,0,0,0-4.32,4.32V422.05a4.33,4.33,0,0,1-4.32,4.32H132.4c-24.72,0-39.94,15.85-39.94,46.27V712.35a58.2,58.2,0,0,0,58.2,58.19H323.3a4.31,4.31,0,0,0,3.24-7.16,71.06,71.06,0,0,1-17.32-46.71V411.88A4.31,4.31,0,0,1,313.54,407.57ZM247.75,691.44a4.32,4.32,0,0,1-4.32,4.31H177.29a4.33,4.33,0,0,1-4.33-4.31V501.67a4.33,4.33,0,0,1,4.33-4.31h66.14a4.32,4.32,0,0,1,4.32,4.31Z"/><path class="cls-1" d="M561.93,761.47a79.72,79.72,0,0,1-17.41-49.83V431.93a5.57,5.57,0,0,0-5.57-5.56H488.88a5.57,5.57,0,0,0-5.57,5.56V690.18a5.56,5.56,0,0,1-5.55,5.57H414.08a5.56,5.56,0,0,1-5.56-5.57V431.93a5.57,5.57,0,0,0-5.56-5.56H333.59a5.56,5.56,0,0,0-5.57,5.56V716.67a52.72,52.72,0,0,0,18.4,40.09,57,57,0,0,0,37.39,13.78h173.8a5.56,5.56,0,0,0,5.56-5.57A5.64,5.64,0,0,0,561.93,761.47Z"/><path class="cls-1" d="M776.68,438a55.41,55.41,0,0,0-34-11.62h-170a9.39,9.39,0,0,0-9.39,9.39V711.64a61.58,61.58,0,0,0,18.65,44,57.2,57.2,0,0,0,39.93,16.46l20.4.29a1.21,1.21,0,0,0,1.23-1.2,1.22,1.22,0,0,0-.33-.81,66.51,66.51,0,0,1-18.48-46V697.58a9.4,9.4,0,0,1,9.4-9.4h0a9.4,9.4,0,0,0,9.41-9.4V514.11a9.4,9.4,0,0,1,9.15-9.4l55.65-1.4A9.41,9.41,0,0,1,718,512.7v86.18a9.4,9.4,0,0,0,9.4,9.4h43a9.4,9.4,0,0,0,9.4-9.37l.52-153.5A9.34,9.34,0,0,0,776.68,438Z"/><path class="cls-1" d="M883.49,438.24l-1.33,209.67A11.76,11.76,0,0,1,876.4,658a58.86,58.86,0,0,0-.66,100.9,11.77,11.77,0,0,1,5.66,10.18l0,2.64v.39H834.5l-.64,0c-1.51.09-3.06.14-4.65.14h-134a47.92,47.92,0,0,1-47.91-47.92v-5.49A11.86,11.86,0,0,1,659.16,707h131A11.88,11.88,0,0,0,802,695.15l.21-68.07.64-189h0a11.88,11.88,0,0,1,11.88-11.83h56.9A11.88,11.88,0,0,1,883.49,438.24Z"/><path class="cls-1" d="M946.26,708.65a40,40,0,0,1-64.68,31.4,40.3,40.3,0,0,1-11-13.53,40,40,0,1,1,75.72-17.87Z"/><path class="cls-1" d="M1118,680.39l16.5.16v68A65.62,65.62,0,0,1,1118,705Z"/><path class="cls-1" d="M1130.66,770.77H1027c-43.72,0-53.22-12.68-52.59-55.13L975,499.58l-53.86.64v-73.5h55.12V306.33H1051l.62,120.39h47.49V500l-48.74-.46v199l48.74.48V705A84.49,84.49,0,0,0,1130.66,770.77Z"/><polygon class="cls-1" points="1137 407.91 1137 519.19 1117.95 519.01 1117.95 407.91 1137 407.91"/><path class="cls-1" d="M1134.46,773.67q-1.93-1.38-3.8-2.9h3.8Z"/><path class="cls-1" d="M1134.46,742.91l-16.5-38.4V705a65.62,65.62,0,0,0,16.5,43.6l0,.05a1.14,1.14,0,0,0,1.88-1.22Zm-35.31-38v-4.81A1.14,1.14,0,0,0,1098,699l-46.5-.46a1.13,1.13,0,0,1-1.12-1.13V500.72a1.12,1.12,0,0,1,1.14-1.13L1098,500a1.14,1.14,0,0,0,1.14-1.14v-71a1.13,1.13,0,0,0-1.13-1.13h-45.23a1.14,1.14,0,0,1-1.13-1.13L1051,307.46a1.13,1.13,0,0,0-1.13-1.13H977.4a1.14,1.14,0,0,0-1.14,1.13V425.58a1.13,1.13,0,0,1-1.13,1.14H922.28a1.13,1.13,0,0,0-1.14,1.13v71.22a1.13,1.13,0,0,0,1.15,1.13l51.56-.61a1.14,1.14,0,0,1,1.15,1.14l-.63,214.91c-.63,42.45,8.87,55.13,52.59,55.13h100.59a1.13,1.13,0,0,0,.74-2A84.4,84.4,0,0,1,1099.15,705ZM1118,426.72v73.5h.24v-73.5Z"/><path class="cls-1" d="M1130.66,770.77h3.8v2.9Q1132.53,772.29,1130.66,770.77Z"/><path class="cls-1" d="M1364.52,768.86q2,1.86,4,3.57l-184.78-1.66a65.61,65.61,0,0,1-45-17.75c-1.52-1.42-3-2.91-4.35-4.47A65.62,65.62,0,0,1,1118,705V306.33h243.45v91.3H1207.07v93.46h122.46V578H1207.07v98.54h135.15v40.34A71.2,71.2,0,0,0,1364.52,768.86Z"/><path class="cls-1" d="M1380.21,657.77v99.89A52.73,52.73,0,0,1,1361,716.91V657.77Z"/><path class="cls-1" d="M1380.21,734.18l-18.8-57.61H1361v40.34a52.73,52.73,0,0,0,19.19,40.75,57.32,57.32,0,0,0,5.09,3.78,2,2,0,0,0,3-2.35Zm-15.69,34.68a71.2,71.2,0,0,1-22.3-52v-38.3a2,2,0,0,0-2-2H1209.11a2,2,0,0,1-2-2V580.07a2,2,0,0,1,2-2h118.38a2,2,0,0,0,2-2V493.12a2,2,0,0,0-2-2H1209.11a2,2,0,0,1-2-2V399.66a2,2,0,0,1,2-2h150.26a2,2,0,0,0,2-2V308.36a2,2,0,0,0-2-2H1120a2,2,0,0,0-2,2V705a65.62,65.62,0,0,0,16.5,43.6c1.39,1.56,2.83,3.05,4.35,4.47a65.61,65.61,0,0,0,45,17.75l179.33,1.61a2,2,0,0,0,1.42-3.52Z"/><path class="cls-1" d="M1573.66,724.91a64.49,64.49,0,0,0,19.11,45.86h-176a57.38,57.38,0,0,1-26.76-6.56,55.63,55.63,0,0,1-9.8-6.55A52.73,52.73,0,0,1,1361,716.91V473c0-30.41,15.2-46.25,39.92-46.25h147.63c10.6,0,18.8,1.3,25.09,3.87V547.73h-48.53V497.68H1439V694.1h134.71Z"/><path class="cls-1" d="M1611.72,470.43v96.11h-19.26V419.86C1609.06,432.61,1611.72,453.32,1611.72,470.43Z"/><path class="cls-1" d="M1592.46,675.29h19.26v87a45.86,45.86,0,0,1-18.8-30.84,46.76,46.76,0,0,1-.46-6.52Z"/><path class="cls-1" d="M1592.46,460v87.72h.46v-77.3C1592.92,466.73,1592.78,463.25,1592.46,460Zm-24.1,234.09H1444.24a5.29,5.29,0,0,1-5.29-5.3V503a5.29,5.29,0,0,1,5.29-5.29h75.59a5.29,5.29,0,0,1,5.3,5.29v39.47a5.29,5.29,0,0,0,5.29,5.29h37.94a5.29,5.29,0,0,0,5.3-5.29V434.34a5.25,5.25,0,0,0-3.71-5c-5.71-1.71-12.75-2.57-21.38-2.57H1400.94c-24.72,0-39.92,15.84-39.92,46.25V716.91a52.73,52.73,0,0,0,19.19,40.75,55.63,55.63,0,0,0,9.8,6.55,57.38,57.38,0,0,0,26.76,6.56h164.59a5.28,5.28,0,0,0,4.32-8.34,64.29,64.29,0,0,1-12-37.52V699.39A5.29,5.29,0,0,0,1568.36,694.1Zm24.1,0v30.81a46.76,46.76,0,0,0,.46,6.52V694.1Z"/><path class="cls-1" d="M1827.54,482.48V770.77h-80.47V504H1672.3V770.77h-34a45.86,45.86,0,0,1-45.4-39.34,46.76,46.76,0,0,1-.46-6.52V307h79.21V426.72h100.1A55.93,55.93,0,0,1,1827.54,482.48Z"/><path class="cls-1" d="M1767.08,426.72h-90.72a4.7,4.7,0,0,1-4.69-4.7V311.66a4.7,4.7,0,0,0-4.7-4.7h-69.81a4.69,4.69,0,0,0-4.7,4.7V724.91a46.76,46.76,0,0,0,.46,6.52,45.86,45.86,0,0,0,45.4,39.34h29.28a4.71,4.71,0,0,0,4.7-4.7V508.71A4.69,4.69,0,0,1,1677,504h65.38a4.7,4.7,0,0,1,4.7,4.69V766.07a4.7,4.7,0,0,0,4.69,4.7h71.08a4.71,4.71,0,0,0,4.7-4.7V487.17A60.63,60.63,0,0,0,1767.08,426.72Z"/></svg>